<?xml version="1.0" encoding="utf-8"?>
<!-- Generator: Adobe Illustrator 25.4.1, SVG Export Plug-In . SVG Version: 6.00 Build 0)  -->
<svg version="1.1" id="logo-35" xmlns="http://www.w3.org/2000/svg" xmlns:xlink="http://www.w3.org/1999/xlink" x="0px" y="0px"
	 viewBox="0 0 50 39" style="enable-background:new 0 0 50 39;" xml:space="preserve">
<style type="text/css">
	.st0{fill-rule:evenodd;clip-rule:evenodd;fill:#F34337;}
</style>
<g id="Layer_2_00000098921363358462019180000004684777395677987727_">
	<g id="Ñëîé_2">
		<path class="st0" d="M19,19.5c0,7.5,6.1,13.6,13.7,13.6c3.6,0,7.1-1.4,9.6-4c5.3-5.4,5.2-14-0.1-19.3c-2.6-2.5-6-3.9-9.6-3.9
			c-0.7,0-1.3-0.6-1.3-1.3s0.6-1.3,1.3-1.3l0,0c8.9,0,16.2,7.2,16.2,16.1s-7.2,16.2-16.1,16.2c-8.9,0-16.2-7.2-16.2-16.1
			c0,0,0-0.1,0-0.1c0-0.7,0.6-1.3,1.3-1.3S19,18.8,19,19.5z"/>
		<path class="st0" d="M23.7,28.3c-0.8-0.8-1.4-1.6-2-2.5c-0.1-0.2-0.2-0.4-0.3-0.7c0-0.7,0.6-1.2,1.2-1.2c0.5-0.1,1,0.2,1.3,0.6
			c0.4,0.8,1,1.4,1.6,2.1c3.9,3.9,10.2,3.9,14,0s3.9-10.2,0-14c-1.2-1.2-2.8-2.1-4.4-2.6c-0.6-0.1-1-0.6-1-1.2
			c0-0.7,0.6-1.2,1.2-1.2c0.1,0,0.2,0,0.4,0c2.1,0.5,4,1.6,5.5,3.2c4.9,4.8,4.9,12.7,0,17.6S28.6,33.1,23.7,28.3z"/>
		<path class="st0" d="M38.7,13.5c3.4,3.4,3.3,8.9-0.1,12.3c-2.2,2.2-5.3,3-8.3,2.2c-0.7-0.1-1.2-0.7-1.1-1.4
			c0.1-0.7,0.7-1.2,1.4-1.1l0,0c0.1,0,0.2,0,0.3,0c3.3,0.9,6.7-1.1,7.6-4.5c0.5-2.1-0.1-4.3-1.6-5.9c-0.5-0.5-0.5-1.3,0-1.8
			c0.2-0.2,0.5-0.4,0.9-0.4C38.1,13,38.4,13.2,38.7,13.5z"/>
		<path class="st0" d="M31,19.5c0-7.6-6.1-13.7-13.7-13.7S3.7,11.9,3.7,19.5c0,7.6,6.1,13.7,13.7,13.7c0.7,0,1.3,0.5,1.3,1.2
			c0,0,0,0,0,0c0,0.7-0.6,1.2-1.3,1.2c-8.9,0-16.1-7.3-16.1-16.2S8.5,3.4,17.4,3.4c4.3,0,8.3,1.7,11.4,4.7c3,3,4.7,7.1,4.7,11.4
			c0,0.7-0.6,1.3-1.2,1.3C31.6,20.7,31,20.2,31,19.5C31,19.5,31,19.5,31,19.5z"/>
		<path class="st0" d="M26.2,10.7c0.8,0.8,1.4,1.6,2,2.5c0.1,0.2,0.2,0.4,0.2,0.6c0,0.7-0.6,1.2-1.2,1.2c-0.5,0-0.9-0.2-1.1-0.6
			c-0.4-0.7-1-1.4-1.6-2c-3.9-3.9-10.2-3.9-14,0s-3.9,10.2,0,14c1.2,1.2,2.7,2.1,4.4,2.5c0.6,0.1,1,0.6,1,1.2c0,0.7-0.6,1.2-1.2,1.2
			c0,0,0,0,0,0h-0.3c-6.6-1.8-10.5-8.6-8.7-15.2S14,5.8,20.6,7.6C22.7,8.1,24.6,9.2,26.2,10.7L26.2,10.7z"/>
		<path class="st0" d="M11.2,25.6c-3.4-3.4-3.3-8.9,0.1-12.3c2.2-2.2,5.3-3,8.3-2.2c0.6,0.1,1,0.6,1,1.2c0,0.7-0.6,1.2-1.2,1.2H19
			c-2.1-0.6-4.4,0-6,1.6c-2.4,2.4-2.4,6.3,0,8.7c0.2,0.2,0.4,0.6,0.4,0.9c0,0.7-0.6,1.2-1.2,1.2C11.8,25.9,11.5,25.8,11.2,25.6z"/>
	</g>
</g>
</svg>
